<svg width="22" height="21" viewBox="0 0 22 21" fill="none" xmlns="http://www.w3.org/2000/svg">
<path d="M5.1875 20.99V6.97437H0.828125V20.99H5.1875ZM2.98438 5.09937C4.39062 5.09937 5.51562 3.92749 5.51562 2.52124C5.51562 1.16187 4.39062 0.0368652 2.98438 0.0368652C1.625 0.0368652 0.5 1.16187 0.5 2.52124C0.5 3.92749 1.625 5.09937 2.98438 5.09937ZM21.4531 20.99H21.5V13.3025C21.5 9.55249 20.6562 6.64624 16.25 6.64624C14.1406 6.64624 12.7344 7.81812 12.125 8.89624H12.0781V6.97437H7.90625V20.99H12.2656V14.0525C12.2656 12.2244 12.5938 10.49 14.8438 10.49C17.0938 10.49 17.1406 12.5525 17.1406 14.1931V20.99H21.4531Z" fill="black"/>
</svg>
